# xmcd
#
# Track frame offsets:
#	150
#	17462
#	44380
#	64570
#	84715
#	107982
#	125850
#	147457
#	166237
#	192487
#
# Disc length: 2887 seconds
#
# Revision: 2
# Processed by: cddbd v1.5.2PL0 Copyright (c) Steve Scherf et al.
# Submitted via: EZCDAudioConverter 8.0.2.1
#
DISCID=8e0b450a
DTITLE=Khánh Hà - Về Đây Em
DYEAR=1999
DGENRE=Pop
TTITLE0=Về Đây Em
TTITLE1=Giọt mưa thu
TTITLE2=Trăng sơn cước
TTITLE3=Người tình không chân dung
TTITLE4=Lời cuối
TTITLE5=Đêm
TTITLE6=Chiều tàn
TTITLE7=Phôi pha
TTITLE8=Gửi gió cho mây ngàn bay
TTITLE9=Chiếc lá cuối cùng
EXTD=
EXTT0=
EXTT1=
EXTT2=
EXTT3=
EXTT4=
EXTT5=
EXTT6=
EXTT7=
EXTT8=
EXTT9=
PLAYORDER=
